{"title":"Carrie (2013) DVDRip Dual-Audio XviD-MAXSPEED","uid":9429651,"size":1463056384,"categoryP":"video","categoryS":"movies","magnet":"?xt=urn:btih:5f731cbdf70cf25eb0776942b5e9976370f108bf&amp;dn=Carrie+%282013%29+DVDRip+Dual-Audio+XviD-MAXSPEED&amp;tr=udp%3A%2F%2Ftracker.openbittorrent.com%3A80&amp;tr=udp%3A%2F%2Fopen.demonii.com%3A1337&amp;tr=udp%3A%2F%2Ftracker.coppersurfer.tk%3A6969&amp;tr=udp%3A%2F%2Fexodus.desync.com%3A6969","seeders":59,"leechers":0,"uploader":"darkj6","files":-1,"time":1388770196,"description":" ______   _______  ______    ___   _      ___  --------|\n|      | |   _   ||    _ |  |   | | |    |   ||   |----|    \n|  _    ||  |_|  ||   | ||  |   |_| |    |   ||   |___ \n| | |   ||       ||   |_||_ |      _|    |   ||    _  |\n| |_|   ||       ||    __  ||     |_  ___|   ||   | | |\n|       ||   _   ||   |  | ||    _  ||       ||   |_| |\n|______| |__| |__||___|  |_||___| |_||_______||_______|\n\n\nA reimagining of the classic horror tale about Carrie White, a shy girl outcast by her peers and sheltered by her deeply religious mother, who unleashes telekinetic terror on her small town after being pushed too far at her senior prom.\n &lt;a href=&quot;\nhttp://www.imdb.com/title/tt1939659/&quot; rel=&quot;nofollow&quot; target=&quot;_NEW&quot;&gt;\nhttp://www.imdb.com/title/tt1939659/&lt;/a&gt;\n\nCarrie (2013) DVDRip XviD-MAXSPEED\nFormat : AVI\nFormat/Info : Audio Video Interleave\nFormat profile : OpenDML\nFormat settings : rec\nFile size : 1.36 GiB\nDuration : 1h 39mn\nOverall bit rate : 1 948 Kbps\nWriting application : VirtualDubMod 1.5.10.2 (build 2542/release)\nWriting library : VirtualDubMod build 2542/release\nOriginal source form : MAX TORRENTZ\nCopyright : SIGISMUNT\n\nVideo\nID : 0\nFormat : MPEG-4 Visual\nFormat profile : Advanced Simple@L5\nFormat settings, BVOP : 2\nFormat settings, QPel : No\nFormat settings, GMC : No warppoints\nFormat settings, Matrix : Custom\nCodec ID : XVID\nCodec ID/Hint : XviD\nDuration : 1h 39mn\nBit rate : 1 687 Kbps\nWidth : 720 pixels\nHeight : 304 pixels\nDisplay aspect ratio : 2.35:1\nFrame rate : 23.976 fps\nColor space : YUV\nChroma subsampling : 4:2:0\nBit depth : 8 bits\nScan type : Progressive\nCompression mode : Lossy\nBits/(Pixel*Frame) : 0.321\nStream size : 1.17 GiB (87%)\nWriting library : XviD 1.2.1 (UTC 2008-12-04)\n\nAudio\nID : 1\nFormat : AC-3\nFormat/Info : Audio Coding 3\nMode extension : CM (complete main)\nFormat settings, Endianness : Big\nCodec ID : 2000\nDuration : 1h 39mn\nBit rate mode : Constant\nBit rate : 256 Kbps\nChannel(s) : 6 channels\nChannel positions : Front: L C R, Side: L R, LFE\nSampling rate : 48.0 KHz\nBit depth : 16 bits\nCompression mode : Lossy\nStream size : 183 MiB (13%)\nAlignment : Aligned on interleaves\nInterleave, duration : 64 ms (1.53 video frames)\nInterleave, preload duration : 192 ms\n &lt;a href=&quot;\nhttp://i.imgur.com/fIOcRAh.jpg&quot; rel=&quot;nofollow&quot; target=&quot;_NEW&quot;&gt;\nhttp://i.imgur.com/fIOcRAh.jpg&lt;/a&gt;\n\n\n________________$$$$\n______________$$____$$\n______________$$____$$\n______________$$____$$\n______________$$____$$\n______________$$____$$\n__________$$$$$$____$$$$$$\n________$$____$$____$$____$$$$\n________$$____$$____$$____$$__$$\n$$$$$$__$$____$$____$$____$$____$$\n$$____$$$$________________$$____$$\n$$______$$______________________$$\n__$$____$$______________________$$\n___$$$__$$______________________$$\n____$$__________________________$$\n_____$$$________________________$$\n______$$______________________$$$\n_______$$$____________________$$\n________$$____________________$$\n_________$$$________________$$$\n__________$$________________$$\n__________$$$$$$$$$$$$$$$$$$$$\n\n\n\n\n","torrent":{"xt":"urn:btih:5f731cbdf70cf25eb0776942b5e9976370f108bf","amp;dn":"Carrie+%282013%29+DVDRip+Dual-Audio+XviD-MAXSPEED","amp;tr":["udp%3A%2F%2Ftracker.openbittorrent.com%3A80","udp%3A%2F%2Fopen.demonii.com%3A1337","udp%3A%2F%2Ftracker.coppersurfer.tk%3A6969","udp%3A%2F%2Fexodus.desync.com%3A6969"],"infoHash":"5f731cbdf70cf25eb0776942b5e9976370f108bf","infoHashBuffer":{"type":"Buffer","data":[95,115,28,189,247,12,242,94,176,119,105,66,181,233,151,99,112,241,8,191]},"announce":[],"urlList":[]}}